<svg xmlns="http://www.w3.org/2000/svg" version="1.1" xmlns:xlink="http://www.w3.org/1999/xlink" xmlns:svgjs="http://svgjs.dev/svgjs" viewBox="0 0 800 800" opacity="0.25" width="800" height="800"><g stroke-width="1.5" stroke="hsla(89, 73%, 48%, 1.00)" fill="none"><line x1="0" y1="0" x2="100" y2="100"></line><line x1="100" y1="0" x2="0" y2="100"></line><rect width="100" height="88.88888888888889" x="0" y="0" opacity="0.15"></rect><line x1="100" y1="0" x2="200" y2="100"></line><line x1="200" y1="0" x2="100" y2="100"></line><rect width="100" height="88.88888888888889" x="100" y="0" opacity="0.15"></rect><line x1="200" y1="0" x2="300" y2="100"></line><line x1="300" y1="0" x2="200" y2="100"></line><rect width="100" height="88.88888888888889" x="200" y="0" opacity="0.15"></rect><line x1="300" y1="0" x2="400" y2="100"></line><line x1="400" y1="0" x2="300" y2="100"></line><rect width="100" height="88.88888888888889" x="300" y="0" opacity="0.15"></rect><line x1="400" y1="0" x2="500" y2="100"></line><line x1="500" y1="0" x2="400" y2="100"></line><rect width="100" height="88.88888888888889" x="400" y="0" opacity="0.15"></rect><line x1="500" y1="0" x2="600" y2="100"></line><line x1="600" y1="0" x2="500" y2="100"></line><rect width="100" height="88.88888888888889" x="500" y="0" opacity="0.15"></rect><line x1="600" y1="0" x2="700" y2="100"></line><line x1="700" y1="0" x2="600" y2="100"></line><rect width="100" height="88.88888888888889" x="600" y="0" opacity="0.15"></rect><line x1="700" y1="0" x2="800" y2="100"></line><line x1="800" y1="0" x2="700" y2="100"></line><rect width="100" height="88.88888888888889" x="700" y="0" opacity="0.15"></rect><line x1="800" y1="0" x2="900" y2="100"></line><line x1="900" y1="0" x2="800" y2="100"></line><rect width="100" height="88.88888888888889" x="800" y="0" opacity="0.15"></rect><line x1="0" y1="88.88888888888889" x2="100" y2="188.88888888888889"></line><line x1="100" y1="88.88888888888889" x2="0" y2="188.88888888888889"></line><rect width="100" height="88.88888888888889" x="0" y="88.88888888888889" opacity="0.15"></rect><line x1="100" y1="88.88888888888889" x2="200" y2="188.88888888888889"></line><line x1="200" y1="88.88888888888889" x2="100" y2="188.88888888888889"></line><rect width="100" height="88.88888888888889" x="100" y="88.88888888888889" opacity="0.15"></rect><line x1="200" y1="88.88888888888889" x2="300" y2="188.88888888888889"></line><line x1="300" y1="88.88888888888889" x2="200" y2="188.88888888888889"></line><rect width="100" height="88.88888888888889" x="200" y="88.88888888888889" opacity="0.15"></rect><line x1="300" y1="88.88888888888889" x2="400" y2="188.88888888888889"></line><line x1="400" y1="88.88888888888889" x2="300" y2="188.88888888888889"></line><rect width="100" height="88.88888888888889" x="300" y="88.88888888888889" opacity="0.15"></rect><line x1="400" y1="88.88888888888889" x2="500" y2="188.88888888888889"></line><line x1="500" y1="88.88888888888889" x2="400" y2="188.88888888888889"></line><rect width="100" height="88.88888888888889" x="400" y="88.88888888888889" opacity="0.15"></rect><line x1="500" y1="88.88888888888889" x2="600" y2="188.88888888888889"></line><line x1="600" y1="88.88888888888889" x2="500" y2="188.88888888888889"></line><rect width="100" height="88.88888888888889" x="500" y="88.88888888888889" opacity="0.15"></rect><line x1="600" y1="88.88888888888889" x2="700" y2="188.88888888888889"></line><line x1="700" y1="88.88888888888889" x2="600" y2="188.88888888888889"></line><rect width="100" height="88.88888888888889" x="600" y="88.88888888888889" opacity="0.15"></rect><line x1="700" y1="88.88888888888889" x2="800" y2="188.88888888888889"></line><line x1="800" y1="88.88888888888889" x2="700" y2="188.88888888888889"></line><rect width="100" height="88.88888888888889" x="700" y="88.88888888888889" opacity="0.15"></rect><line x1="800" y1="88.88888888888889" x2="900" y2="188.88888888888889"></line><line x1="900" y1="88.88888888888889" x2="800" y2="188.88888888888889"></line><rect width="100" height="88.88888888888889" x="800" y="88.88888888888889" opacity="0.15"></rect><line x1="0" y1="177.77777777777777" x2="100" y2="277.77777777777777"></line><line x1="100" y1="177.77777777777777" x2="0" y2="277.77777777777777"></line><rect width="100" height="88.88888888888889" x="0" y="177.77777777777777" opacity="0.15"></rect><line x1="100" y1="177.77777777777777" x2="200" y2="277.77777777777777"></line><line x1="200" y1="177.77777777777777" x2="100" y2="277.77777777777777"></line><rect width="100" height="88.88888888888889" x="100" y="177.77777777777777" opacity="0.15"></rect><line x1="200" y1="177.77777777777777" x2="300" y2="277.77777777777777"></line><line x1="300" y1="177.77777777777777" x2="200" y2="277.77777777777777"></line><rect width="100" height="88.88888888888889" x="200" y="177.77777777777777" opacity="0.15"></rect><line x1="300" y1="177.77777777777777" x2="400" y2="277.77777777777777"></line><line x1="400" y1="177.77777777777777" x2="300" y2="277.77777777777777"></line><rect width="100" height="88.88888888888889" x="300" y="177.77777777777777" opacity="0.15"></rect><line x1="400" y1="177.77777777777777" x2="500" y2="277.77777777777777"></line><line x1="500" y1="177.77777777777777" x2="400" y2="277.77777777777777"></line><rect width="100" height="88.88888888888889" x="400" y="177.77777777777777" opacity="0.15"></rect><line x1="500" y1="177.77777777777777" x2="600" y2="277.77777777777777"></line><line x1="600" y1="177.77777777777777" x2="500" y2="277.77777777777777"></line><rect width="100" height="88.88888888888889" x="500" y="177.77777777777777" opacity="0.15"></rect><line x1="600" y1="177.77777777777777" x2="700" y2="277.77777777777777"></line><line x1="700" y1="177.77777777777777" x2="600" y2="277.77777777777777"></line><rect width="100" height="88.88888888888889" x="600" y="177.77777777777777" opacity="0.15"></rect><line x1="700" y1="177.77777777777777" x2="800" y2="277.77777777777777"></line><line x1="800" y1="177.77777777777777" x2="700" y2="277.77777777777777"></line><rect width="100" height="88.88888888888889" x="700" y="177.77777777777777" opacity="0.15"></rect><line x1="800" y1="177.77777777777777" x2="900" y2="277.77777777777777"></line><line x1="900" y1="177.77777777777777" x2="800" y2="277.77777777777777"></line><rect width="100" height="88.88888888888889" x="800" y="177.77777777777777" opacity="0.15"></rect><line x1="0" y1="266.66666666666663" x2="100" y2="366.66666666666663"></line><line x1="100" y1="266.66666666666663" x2="0" y2="366.66666666666663"></line><rect width="100" height="88.88888888888889" x="0" y="266.66666666666663" opacity="0.15"></rect><line x1="100" y1="266.66666666666663" x2="200" y2="366.66666666666663"></line><line x1="200" y1="266.66666666666663" x2="100" y2="366.66666666666663"></line><rect width="100" height="88.88888888888889" x="100" y="266.66666666666663" opacity="0.15"></rect><line x1="200" y1="266.66666666666663" x2="300" y2="366.66666666666663"></line><line x1="300" y1="266.66666666666663" x2="200" y2="366.66666666666663"></line><rect width="100" height="88.88888888888889" x="200" y="266.66666666666663" opacity="0.15"></rect><line x1="300" y1="266.66666666666663" x2="400" y2="366.66666666666663"></line><line x1="400" y1="266.66666666666663" x2="300" y2="366.66666666666663"></line><rect width="100" height="88.88888888888889" x="300" y="266.66666666666663" opacity="0.15"></rect><line x1="400" y1="266.66666666666663" x2="500" y2="366.66666666666663"></line><line x1="500" y1="266.66666666666663" x2="400" y2="366.66666666666663"></line><rect width="100" height="88.88888888888889" x="400" y="266.66666666666663" opacity="0.15"></rect><line x1="500" y1="266.66666666666663" x2="600" y2="366.66666666666663"></line><line x1="600" y1="266.66666666666663" x2="500" y2="366.66666666666663"></line><rect width="100" height="88.88888888888889" x="500" y="266.66666666666663" opacity="0.15"></rect><line x1="600" y1="266.66666666666663" x2="700" y2="366.66666666666663"></line><line x1="700" y1="266.66666666666663" x2="600" y2="366.66666666666663"></line><rect width="100" height="88.88888888888889" x="600" y="266.66666666666663" opacity="0.15"></rect><line x1="700" y1="266.66666666666663" x2="800" y2="366.66666666666663"></line><line x1="800" y1="266.66666666666663" x2="700" y2="366.66666666666663"></line><rect width="100" height="88.88888888888889" x="700" y="266.66666666666663" opacity="0.15"></rect><line x1="800" y1="266.66666666666663" x2="900" y2="366.66666666666663"></line><line x1="900" y1="266.66666666666663" x2="800" y2="366.66666666666663"></line><rect width="100" height="88.88888888888889" x="800" y="266.66666666666663" opacity="0.15"></rect><line x1="0" y1="355.55555555555554" x2="100" y2="455.55555555555554"></line><line x1="100" y1="355.55555555555554" x2="0" y2="455.55555555555554"></line><rect width="100" height="88.88888888888889" x="0" y="355.55555555555554" opacity="0.15"></rect><line x1="100" y1="355.55555555555554" x2="200" y2="455.55555555555554"></line><line x1="200" y1="355.55555555555554" x2="100" y2="455.55555555555554"></line><rect width="100" height="88.88888888888889" x="100" y="355.55555555555554" opacity="0.15"></rect><line x1="200" y1="355.55555555555554" x2="300" y2="455.55555555555554"></line><line x1="300" y1="355.55555555555554" x2="200" y2="455.55555555555554"></line><rect width="100" height="88.88888888888889" x="200" y="355.55555555555554" opacity="0.15"></rect><line x1="300" y1="355.55555555555554" x2="400" y2="455.55555555555554"></line><line x1="400" y1="355.55555555555554" x2="300" y2="455.55555555555554"></line><rect width="100" height="88.88888888888889" x="300" y="355.55555555555554" opacity="0.15"></rect><line x1="400" y1="355.55555555555554" x2="500" y2="455.55555555555554"></line><line x1="500" y1="355.55555555555554" x2="400" y2="455.55555555555554"></line><rect width="100" height="88.88888888888889" x="400" y="355.55555555555554" opacity="0.15"></rect><line x1="500" y1="355.55555555555554" x2="600" y2="455.55555555555554"></line><line x1="600" y1="355.55555555555554" x2="500" y2="455.55555555555554"></line><rect width="100" height="88.88888888888889" x="500" y="355.55555555555554" opacity="0.15"></rect><line x1="600" y1="355.55555555555554" x2="700" y2="455.55555555555554"></line><line x1="700" y1="355.55555555555554" x2="600" y2="455.55555555555554"></line><rect width="100" height="88.88888888888889" x="600" y="355.55555555555554" opacity="0.15"></rect><line x1="700" y1="355.55555555555554" x2="800" y2="455.55555555555554"></line><line x1="800" y1="355.55555555555554" x2="700" y2="455.55555555555554"></line><rect width="100" height="88.88888888888889" x="700" y="355.55555555555554" opacity="0.15"></rect><line x1="800" y1="355.55555555555554" x2="900" y2="455.55555555555554"></line><line x1="900" y1="355.55555555555554" x2="800" y2="455.55555555555554"></line><rect width="100" height="88.88888888888889" x="800" y="355.55555555555554" opacity="0.15"></rect><line x1="0" y1="444.44444444444446" x2="100" y2="544.4444444444445"></line><line x1="100" y1="444.44444444444446" x2="0" y2="544.4444444444445"></line><rect width="100" height="88.88888888888889" x="0" y="444.44444444444446" opacity="0.15"></rect><line x1="100" y1="444.44444444444446" x2="200" y2="544.4444444444445"></line><line x1="200" y1="444.44444444444446" x2="100" y2="544.4444444444445"></line><rect width="100" height="88.88888888888889" x="100" y="444.44444444444446" opacity="0.15"></rect><line x1="200" y1="444.44444444444446" x2="300" y2="544.4444444444445"></line><line x1="300" y1="444.44444444444446" x2="200" y2="544.4444444444445"></line><rect width="100" height="88.88888888888889" x="200" y="444.44444444444446" opacity="0.15"></rect><line x1="300" y1="444.44444444444446" x2="400" y2="544.4444444444445"></line><line x1="400" y1="444.44444444444446" x2="300" y2="544.4444444444445"></line><rect width="100" height="88.88888888888889" x="300" y="444.44444444444446" opacity="0.15"></rect><line x1="400" y1="444.44444444444446" x2="500" y2="544.4444444444445"></line><line x1="500" y1="444.44444444444446" x2="400" y2="544.4444444444445"></line><rect width="100" height="88.88888888888889" x="400" y="444.44444444444446" opacity="0.15"></rect><line x1="500" y1="444.44444444444446" x2="600" y2="544.4444444444445"></line><line x1="600" y1="444.44444444444446" x2="500" y2="544.4444444444445"></line><rect width="100" height="88.88888888888889" x="500" y="444.44444444444446" opacity="0.15"></rect><line x1="600" y1="444.44444444444446" x2="700" y2="544.4444444444445"></line><line x1="700" y1="444.44444444444446" x2="600" y2="544.4444444444445"></line><rect width="100" height="88.88888888888889" x="600" y="444.44444444444446" opacity="0.15"></rect><line x1="700" y1="444.44444444444446" x2="800" y2="544.4444444444445"></line><line x1="800" y1="444.44444444444446" x2="700" y2="544.4444444444445"></line><rect width="100" height="88.88888888888889" x="700" y="444.44444444444446" opacity="0.15"></rect><line x1="800" y1="444.44444444444446" x2="900" y2="544.4444444444445"></line><line x1="900" y1="444.44444444444446" x2="800" y2="544.4444444444445"></line><rect width="100" height="88.88888888888889" x="800" y="444.44444444444446" opacity="0.15"></rect><line x1="0" y1="533.3333333333334" x2="100" y2="633.3333333333334"></line><line x1="100" y1="533.3333333333334" x2="0" y2="633.3333333333334"></line><rect width="100" height="88.88888888888889" x="0" y="533.3333333333334" opacity="0.15"></rect><line x1="100" y1="533.3333333333334" x2="200" y2="633.3333333333334"></line><line x1="200" y1="533.3333333333334" x2="100" y2="633.3333333333334"></line><rect width="100" height="88.88888888888889" x="100" y="533.3333333333334" opacity="0.15"></rect><line x1="200" y1="533.3333333333334" x2="300" y2="633.3333333333334"></line><line x1="300" y1="533.3333333333334" x2="200" y2="633.3333333333334"></line><rect width="100" height="88.88888888888889" x="200" y="533.3333333333334" opacity="0.15"></rect><line x1="300" y1="533.3333333333334" x2="400" y2="633.3333333333334"></line><line x1="400" y1="533.3333333333334" x2="300" y2="633.3333333333334"></line><rect width="100" height="88.88888888888889" x="300" y="533.3333333333334" opacity="0.15"></rect><line x1="400" y1="533.3333333333334" x2="500" y2="633.3333333333334"></line><line x1="500" y1="533.3333333333334" x2="400" y2="633.3333333333334"></line><rect width="100" height="88.88888888888889" x="400" y="533.3333333333334" opacity="0.15"></rect><line x1="500" y1="533.3333333333334" x2="600" y2="633.3333333333334"></line><line x1="600" y1="533.3333333333334" x2="500" y2="633.3333333333334"></line><rect width="100" height="88.88888888888889" x="500" y="533.3333333333334" opacity="0.15"></rect><line x1="600" y1="533.3333333333334" x2="700" y2="633.3333333333334"></line><line x1="700" y1="533.3333333333334" x2="600" y2="633.3333333333334"></line><rect width="100" height="88.88888888888889" x="600" y="533.3333333333334" opacity="0.15"></rect><line x1="700" y1="533.3333333333334" x2="800" y2="633.3333333333334"></line><line x1="800" y1="533.3333333333334" x2="700" y2="633.3333333333334"></line><rect width="100" height="88.88888888888889" x="700" y="533.3333333333334" opacity="0.15"></rect><line x1="800" y1="533.3333333333334" x2="900" y2="633.3333333333334"></line><line x1="900" y1="533.3333333333334" x2="800" y2="633.3333333333334"></line><rect width="100" height="88.88888888888889" x="800" y="533.3333333333334" opacity="0.15"></rect><line x1="0" y1="622.2222222222223" x2="100" y2="722.2222222222223"></line><line x1="100" y1="622.2222222222223" x2="0" y2="722.2222222222223"></line><rect width="100" height="88.88888888888889" x="0" y="622.2222222222223" opacity="0.15"></rect><line x1="100" y1="622.2222222222223" x2="200" y2="722.2222222222223"></line><line x1="200" y1="622.2222222222223" x2="100" y2="722.2222222222223"></line><rect width="100" height="88.88888888888889" x="100" y="622.2222222222223" opacity="0.15"></rect><line x1="200" y1="622.2222222222223" x2="300" y2="722.2222222222223"></line><line x1="300" y1="622.2222222222223" x2="200" y2="722.2222222222223"></line><rect width="100" height="88.88888888888889" x="200" y="622.2222222222223" opacity="0.15"></rect><line x1="300" y1="622.2222222222223" x2="400" y2="722.2222222222223"></line><line x1="400" y1="622.2222222222223" x2="300" y2="722.2222222222223"></line><rect width="100" height="88.88888888888889" x="300" y="622.2222222222223" opacity="0.15"></rect><line x1="400" y1="622.2222222222223" x2="500" y2="722.2222222222223"></line><line x1="500" y1="622.2222222222223" x2="400" y2="722.2222222222223"></line><rect width="100" height="88.88888888888889" x="400" y="622.2222222222223" opacity="0.15"></rect><line x1="500" y1="622.2222222222223" x2="600" y2="722.2222222222223"></line><line x1="600" y1="622.2222222222223" x2="500" y2="722.2222222222223"></line><rect width="100" height="88.88888888888889" x="500" y="622.2222222222223" opacity="0.15"></rect><line x1="600" y1="622.2222222222223" x2="700" y2="722.2222222222223"></line><line x1="700" y1="622.2222222222223" x2="600" y2="722.2222222222223"></line><rect width="100" height="88.88888888888889" x="600" y="622.2222222222223" opacity="0.15"></rect><line x1="700" y1="622.2222222222223" x2="800" y2="722.2222222222223"></line><line x1="800" y1="622.2222222222223" x2="700" y2="722.2222222222223"></line><rect width="100" height="88.88888888888889" x="700" y="622.2222222222223" opacity="0.15"></rect><line x1="800" y1="622.2222222222223" x2="900" y2="722.2222222222223"></line><line x1="900" y1="622.2222222222223" x2="800" y2="722.2222222222223"></line><rect width="100" height="88.88888888888889" x="800" y="622.2222222222223" opacity="0.15"></rect><line x1="0" y1="711.1111111111112" x2="100" y2="811.1111111111112"></line><line x1="100" y1="711.1111111111112" x2="0" y2="811.1111111111112"></line><rect width="100" height="88.88888888888889" x="0" y="711.1111111111112" opacity="0.15"></rect><line x1="100" y1="711.1111111111112" x2="200" y2="811.1111111111112"></line><line x1="200" y1="711.1111111111112" x2="100" y2="811.1111111111112"></line><rect width="100" height="88.88888888888889" x="100" y="711.1111111111112" opacity="0.15"></rect><line x1="200" y1="711.1111111111112" x2="300" y2="811.1111111111112"></line><line x1="300" y1="711.1111111111112" x2="200" y2="811.1111111111112"></line><rect width="100" height="88.88888888888889" x="200" y="711.1111111111112" opacity="0.15"></rect><line x1="300" y1="711.1111111111112" x2="400" y2="811.1111111111112"></line><line x1="400" y1="711.1111111111112" x2="300" y2="811.1111111111112"></line><rect width="100" height="88.88888888888889" x="300" y="711.1111111111112" opacity="0.15"></rect><line x1="400" y1="711.1111111111112" x2="500" y2="811.1111111111112"></line><line x1="500" y1="711.1111111111112" x2="400" y2="811.1111111111112"></line><rect width="100" height="88.88888888888889" x="400" y="711.1111111111112" opacity="0.15"></rect><line x1="500" y1="711.1111111111112" x2="600" y2="811.1111111111112"></line><line x1="600" y1="711.1111111111112" x2="500" y2="811.1111111111112"></line><rect width="100" height="88.88888888888889" x="500" y="711.1111111111112" opacity="0.15"></rect><line x1="600" y1="711.1111111111112" x2="700" y2="811.1111111111112"></line><line x1="700" y1="711.1111111111112" x2="600" y2="811.1111111111112"></line><rect width="100" height="88.88888888888889" x="600" y="711.1111111111112" opacity="0.15"></rect><line x1="700" y1="711.1111111111112" x2="800" y2="811.1111111111112"></line><line x1="800" y1="711.1111111111112" x2="700" y2="811.1111111111112"></line><rect width="100" height="88.88888888888889" x="700" y="711.1111111111112" opacity="0.15"></rect><line x1="800" y1="711.1111111111112" x2="900" y2="811.1111111111112"></line><line x1="900" y1="711.1111111111112" x2="800" y2="811.1111111111112"></line><rect width="100" height="88.88888888888889" x="800" y="711.1111111111112" opacity="0.15"></rect><line x1="0" y1="800.0000000000001" x2="100" y2="900.0000000000001"></line><line x1="100" y1="800.0000000000001" x2="0" y2="900.0000000000001"></line><rect width="100" height="88.88888888888889" x="0" y="800.0000000000001" opacity="0.15"></rect><line x1="100" y1="800.0000000000001" x2="200" y2="900.0000000000001"></line><line x1="200" y1="800.0000000000001" x2="100" y2="900.0000000000001"></line><rect width="100" height="88.88888888888889" x="100" y="800.0000000000001" opacity="0.15"></rect><line x1="200" y1="800.0000000000001" x2="300" y2="900.0000000000001"></line><line x1="300" y1="800.0000000000001" x2="200" y2="900.0000000000001"></line><rect width="100" height="88.88888888888889" x="200" y="800.0000000000001" opacity="0.15"></rect><line x1="300" y1="800.0000000000001" x2="400" y2="900.0000000000001"></line><line x1="400" y1="800.0000000000001" x2="300" y2="900.0000000000001"></line><rect width="100" height="88.88888888888889" x="300" y="800.0000000000001" opacity="0.15"></rect><line x1="400" y1="800.0000000000001" x2="500" y2="900.0000000000001"></line><line x1="500" y1="800.0000000000001" x2="400" y2="900.0000000000001"></line><rect width="100" height="88.88888888888889" x="400" y="800.0000000000001" opacity="0.15"></rect><line x1="500" y1="800.0000000000001" x2="600" y2="900.0000000000001"></line><line x1="600" y1="800.0000000000001" x2="500" y2="900.0000000000001"></line><rect width="100" height="88.88888888888889" x="500" y="800.0000000000001" opacity="0.15"></rect><line x1="600" y1="800.0000000000001" x2="700" y2="900.0000000000001"></line><line x1="700" y1="800.0000000000001" x2="600" y2="900.0000000000001"></line><rect width="100" height="88.88888888888889" x="600" y="800.0000000000001" opacity="0.15"></rect><line x1="700" y1="800.0000000000001" x2="800" y2="900.0000000000001"></line><line x1="800" y1="800.0000000000001" x2="700" y2="900.0000000000001"></line><rect width="100" height="88.88888888888889" x="700" y="800.0000000000001" opacity="0.15"></rect><line x1="800" y1="800.0000000000001" x2="900" y2="900.0000000000001"></line><line x1="900" y1="800.0000000000001" x2="800" y2="900.0000000000001"></line><rect width="100" height="88.88888888888889" x="800" y="800.0000000000001" opacity="0.15"></rect></g></svg>